<svg width="404" height="212" viewBox="0 0 404 212" fill="none" xmlns="http://www.w3.org/2000/svg">
<path d="M23.168 49.768C19.4133 49.768 16.064 48.9787 13.12 47.4C10.176 45.8213 7.85067 43.6667 6.144 40.936C4.48 38.1627 3.648 35.0267 3.648 31.528V1.32H13.568V30.888C13.568 32.7653 13.9733 34.472 14.784 36.008C15.6373 37.5013 16.7893 38.6747 18.24 39.528C19.6907 40.3813 21.3333 40.808 23.168 40.808C25.0453 40.808 26.688 40.3813 28.096 39.528C29.5467 38.6747 30.6773 37.5013 31.488 36.008C32.3413 34.472 32.768 32.7653 32.768 30.888V1.32H42.688V31.528C42.688 35.0267 41.8347 38.1627 40.128 40.936C38.464 43.6667 36.16 45.8213 33.216 47.4C30.272 48.9787 26.9227 49.768 23.168 49.768ZM49.8325 49V14.056H58.7925V20.968L58.2805 19.432C59.0912 17.3413 60.3925 15.8053 62.1845 14.824C64.0192 13.8 66.1525 13.288 68.5845 13.288C71.2298 13.288 73.5338 13.8427 75.4965 14.952C77.5018 16.0613 79.0592 17.6187 80.1685 19.624C81.2778 21.5867 81.8325 23.8907 81.8325 26.536V49H72.2325V28.584C72.2325 27.2187 71.9552 26.0453 71.4005 25.064C70.8885 24.0827 70.1418 23.3147 69.1605 22.76C68.2218 22.2053 67.1125 21.928 65.8325 21.928C64.5952 21.928 63.4858 22.2053 62.5045 22.76C61.5232 23.3147 60.7552 24.0827 60.2005 25.064C59.6885 26.0453 59.4325 27.2187 59.4325 28.584V49H49.8325ZM98.464 49L84.704 14.056H95.072L104.608 40.488H100.64L110.176 14.056H120.544L106.784 49H98.464ZM140.977 49.768C137.265 49.768 134.044 48.9573 131.313 47.336C128.582 45.672 126.47 43.4533 124.977 40.68C123.484 37.9067 122.737 34.8347 122.737 31.464C122.737 27.9653 123.505 24.8507 125.041 22.12C126.62 19.3893 128.732 17.2347 131.377 15.656C134.022 14.0773 137.009 13.288 140.337 13.288C143.11 13.288 145.564 13.736 147.697 14.632C149.83 15.4853 151.622 16.7013 153.073 18.28C154.566 19.8587 155.697 21.6933 156.465 23.784C157.233 25.832 157.617 28.072 157.617 30.504C157.617 31.1867 157.574 31.8693 157.489 32.552C157.446 33.192 157.34 33.7467 157.169 34.216H130.993V27.176H151.729L147.185 30.504C147.612 28.6693 147.59 27.048 147.121 25.64C146.652 24.1893 145.82 23.0587 144.625 22.248C143.473 21.3947 142.044 20.968 140.337 20.968C138.673 20.968 137.244 21.3733 136.049 22.184C134.854 22.9947 133.958 24.1893 133.361 25.768C132.764 27.3467 132.529 29.2667 132.657 31.528C132.486 33.4907 132.721 35.2187 133.361 36.712C134.001 38.2053 134.982 39.3787 136.305 40.232C137.628 41.0427 139.228 41.448 141.105 41.448C142.812 41.448 144.262 41.1067 145.457 40.424C146.694 39.7413 147.654 38.8027 148.337 37.608L156.017 41.256C155.334 42.9627 154.246 44.456 152.753 45.736C151.302 47.016 149.574 48.0187 147.569 48.744C145.564 49.4267 143.366 49.768 140.977 49.768ZM163.27 49V14.056H172.87V49H163.27ZM163.27 10.92V1.32H172.87V10.92H163.27ZM179.895 49V0.551998H189.495V49H179.895ZM196.52 49V14.056H206.12V49H196.52ZM196.52 10.92V1.32H206.12V10.92H196.52ZM213.145 49V14.056H222.105V20.968L221.593 19.432C222.404 17.3413 223.705 15.8053 225.497 14.824C227.332 13.8 229.465 13.288 231.897 13.288C234.542 13.288 236.846 13.8427 238.809 14.952C240.814 16.0613 242.372 17.6187 243.481 19.624C244.59 21.5867 245.145 23.8907 245.145 26.536V49H235.545V28.584C235.545 27.2187 235.268 26.0453 234.713 25.064C234.201 24.0827 233.454 23.3147 232.473 22.76C231.534 22.2053 230.425 21.928 229.145 21.928C227.908 21.928 226.798 22.2053 225.817 22.76C224.836 23.3147 224.068 24.0827 223.513 25.064C223.001 26.0453 222.745 27.2187 222.745 28.584V49H213.145ZM268.61 63.08C265.922 63.08 263.426 62.632 261.122 61.736C258.818 60.84 256.834 59.5813 255.17 57.96C253.548 56.3813 252.375 54.504 251.65 52.328L260.546 49.192C261.015 50.8133 261.975 52.0933 263.426 53.032C264.876 53.9707 266.604 54.44 268.61 54.44C270.188 54.44 271.554 54.1413 272.706 53.544C273.858 52.9893 274.732 52.1573 275.33 51.048C275.97 49.9387 276.29 48.6373 276.29 47.144V39.144L278.146 41.448C276.951 43.4107 275.415 44.8827 273.538 45.864C271.66 46.8027 269.463 47.272 266.946 47.272C263.703 47.272 260.802 46.5467 258.242 45.096C255.682 43.6027 253.676 41.576 252.226 39.016C250.775 36.4133 250.049 33.4693 250.049 30.184C250.049 26.8987 250.775 23.9973 252.226 21.48C253.676 18.92 255.66 16.9147 258.178 15.464C260.695 14.0133 263.554 13.288 266.753 13.288C269.271 13.288 271.468 13.8 273.346 14.824C275.223 15.8053 276.823 17.32 278.146 19.368L276.93 21.672V14.056H285.89V47.144C285.89 50.216 285.143 52.9467 283.65 55.336C282.156 57.768 280.108 59.6667 277.506 61.032C274.946 62.3973 271.98 63.08 268.61 63.08ZM268.29 38.568C269.911 38.568 271.319 38.2267 272.514 37.544C273.708 36.8613 274.626 35.9013 275.266 34.664C275.948 33.4267 276.29 31.976 276.29 30.312C276.29 28.648 275.948 27.1973 275.266 25.96C274.583 24.68 273.644 23.6987 272.45 23.016C271.255 22.2907 269.868 21.928 268.29 21.928C266.668 21.928 265.218 22.2907 263.938 23.016C262.7 23.6987 261.719 24.68 260.994 25.96C260.311 27.1973 259.97 28.648 259.97 30.312C259.97 31.9333 260.311 33.3627 260.994 34.6C261.719 35.8373 262.7 36.8187 263.938 37.544C265.218 38.2267 266.668 38.568 268.29 38.568ZM321.29 49.384C317.066 49.384 313.78 48.2533 311.434 45.992C309.13 43.688 307.978 40.488 307.978 36.392V22.376H302.09V14.056H302.41C304.202 14.056 305.567 13.608 306.506 12.712C307.487 11.816 307.978 10.472 307.978 8.68V6.12H317.578V14.056H325.77V22.376H317.578V35.752C317.578 36.9467 317.791 37.9493 318.218 38.76C318.644 39.528 319.306 40.104 320.202 40.488C321.098 40.872 322.207 41.064 323.53 41.064C323.828 41.064 324.17 41.0427 324.554 41C324.938 40.9573 325.343 40.9147 325.77 40.872V49C325.13 49.0853 324.404 49.1707 323.594 49.256C322.783 49.3413 322.015 49.384 321.29 49.384ZM331.395 49V0.551998H340.995V20.968L339.843 19.432C340.654 17.3413 341.955 15.8053 343.747 14.824C345.582 13.8 347.715 13.288 350.147 13.288C352.792 13.288 355.096 13.8427 357.059 14.952C359.064 16.0613 360.622 17.6187 361.731 19.624C362.84 21.5867 363.395 23.8907 363.395 26.536V49H353.795V28.584C353.795 27.2187 353.518 26.0453 352.963 25.064C352.451 24.0827 351.704 23.3147 350.723 22.76C349.784 22.2053 348.675 21.928 347.395 21.928C346.158 21.928 345.048 22.2053 344.067 22.76C343.086 23.3147 342.318 24.0827 341.763 25.064C341.251 26.0453 340.995 27.2187 340.995 28.584V49H331.395ZM386.54 49.768C382.828 49.768 379.606 48.9573 376.876 47.336C374.145 45.672 372.033 43.4533 370.54 40.68C369.046 37.9067 368.299 34.8347 368.299 31.464C368.299 27.9653 369.068 24.8507 370.604 22.12C372.182 19.3893 374.294 17.2347 376.94 15.656C379.585 14.0773 382.572 13.288 385.9 13.288C388.673 13.288 391.126 13.736 393.26 14.632C395.393 15.4853 397.185 16.7013 398.636 18.28C400.129 19.8587 401.26 21.6933 402.028 23.784C402.796 25.832 403.18 28.072 403.18 30.504C403.18 31.1867 403.137 31.8693 403.052 32.552C403.009 33.192 402.902 33.7467 402.732 34.216H376.556V27.176H397.292L392.748 30.504C393.174 28.6693 393.153 27.048 392.684 25.64C392.214 24.1893 391.382 23.0587 390.188 22.248C389.036 21.3947 387.606 20.968 385.9 20.968C384.236 20.968 382.806 21.3733 381.612 22.184C380.417 22.9947 379.521 24.1893 378.924 25.768C378.326 27.3467 378.092 29.2667 378.22 31.528C378.049 33.4907 378.284 35.2187 378.924 36.712C379.564 38.2053 380.545 39.3787 381.868 40.232C383.19 41.0427 384.79 41.448 386.668 41.448C388.374 41.448 389.825 41.1067 391.02 40.424C392.257 39.7413 393.217 38.8027 393.9 37.608L401.58 41.256C400.897 42.9627 399.809 44.456 398.316 45.736C396.865 47.016 395.137 48.0187 393.132 48.744C391.126 49.4267 388.929 49.768 386.54 49.768ZM13.184 130L0.704 82.32H11.456L20.864 122.256H17.984L27.904 82.32H38.144L48.064 122.256H45.184L54.592 82.32H65.344L52.864 130H41.344L31.36 91.6H34.688L24.704 130H13.184ZM84.989 130.768C81.533 130.768 78.3757 129.979 75.517 128.4C72.701 126.821 70.4397 124.667 68.733 121.936C67.069 119.163 66.237 116.027 66.237 112.528C66.237 108.987 67.069 105.851 68.733 103.12C70.4397 100.389 72.701 98.2347 75.517 96.656C78.3757 95.0773 81.533 94.288 84.989 94.288C88.445 94.288 91.581 95.0773 94.397 96.656C97.213 98.2347 99.453 100.389 101.117 103.12C102.824 105.851 103.677 108.987 103.677 112.528C103.677 116.027 102.824 119.163 101.117 121.936C99.453 124.667 97.213 126.821 94.397 128.4C91.581 129.979 88.445 130.768 84.989 130.768ZM84.989 122.128C86.7383 122.128 88.253 121.723 89.533 120.912C90.8557 120.101 91.8797 118.971 92.605 117.52C93.373 116.069 93.757 114.405 93.757 112.528C93.757 110.651 93.373 109.008 92.605 107.6C91.8797 106.149 90.8557 105.019 89.533 104.208C88.253 103.355 86.7383 102.928 84.989 102.928C83.2397 102.928 81.7037 103.355 80.381 104.208C79.0583 105.019 78.013 106.149 77.245 107.6C76.5197 109.008 76.157 110.651 76.157 112.528C76.157 114.405 76.5197 116.069 77.245 117.52C78.013 118.971 79.0583 120.101 80.381 120.912C81.7037 121.723 83.2397 122.128 84.989 122.128ZM109.333 130V95.056H118.293V101.968L117.781 100.432C118.591 98.3413 119.893 96.8053 121.685 95.824C123.519 94.8 125.653 94.288 128.085 94.288C130.73 94.288 133.034 94.8427 134.997 95.952C137.002 97.0613 138.559 98.6187 139.669 100.624C140.778 102.587 141.333 104.891 141.333 107.536V130H131.733V109.584C131.733 108.219 131.455 107.045 130.901 106.064C130.389 105.083 129.642 104.315 128.661 103.76C127.722 103.205 126.613 102.928 125.333 102.928C124.095 102.928 122.986 103.205 122.005 103.76C121.023 104.315 120.255 105.083 119.701 106.064C119.189 107.045 118.933 108.219 118.933 109.584V130H109.333ZM164.093 130.768C160.68 130.768 157.629 129.957 154.941 128.336C152.253 126.715 150.12 124.517 148.541 121.744C147.005 118.971 146.237 115.899 146.237 112.528C146.237 109.115 147.026 106.043 148.605 103.312C150.184 100.539 152.317 98.3413 155.005 96.72C157.693 95.0987 160.701 94.288 164.029 94.288C166.589 94.288 168.85 94.7787 170.813 95.76C172.818 96.6987 174.397 98.0427 175.549 99.792L174.077 101.712V81.552H183.677V130H174.717V123.6L175.613 125.584C174.418 127.291 172.797 128.592 170.749 129.488C168.701 130.341 166.482 130.768 164.093 130.768ZM165.245 122.128C166.994 122.128 168.53 121.723 169.853 120.912C171.176 120.101 172.2 118.971 172.925 117.52C173.693 116.069 174.077 114.405 174.077 112.528C174.077 110.651 173.693 108.987 172.925 107.536C172.2 106.085 171.176 104.955 169.853 104.144C168.53 103.333 166.994 102.928 165.245 102.928C163.496 102.928 161.917 103.355 160.509 104.208C159.144 105.019 158.077 106.149 157.309 107.6C156.541 109.008 156.157 110.651 156.157 112.528C156.157 114.405 156.541 116.069 157.309 117.52C158.077 118.971 159.144 120.101 160.509 120.912C161.917 121.723 163.496 122.128 165.245 122.128ZM207.54 130.768C203.828 130.768 200.606 129.957 197.876 128.336C195.145 126.672 193.033 124.453 191.54 121.68C190.046 118.907 189.299 115.835 189.299 112.464C189.299 108.965 190.068 105.851 191.604 103.12C193.182 100.389 195.294 98.2347 197.94 96.656C200.585 95.0773 203.572 94.288 206.9 94.288C209.673 94.288 212.126 94.736 214.26 95.632C216.393 96.4853 218.185 97.7013 219.636 99.28C221.129 100.859 222.26 102.693 223.028 104.784C223.796 106.832 224.18 109.072 224.18 111.504C224.18 112.187 224.137 112.869 224.052 113.552C224.009 114.192 223.902 114.747 223.732 115.216H197.556V108.176H218.292L213.748 111.504C214.174 109.669 214.153 108.048 213.684 106.64C213.214 105.189 212.382 104.059 211.188 103.248C210.036 102.395 208.606 101.968 206.9 101.968C205.236 101.968 203.806 102.373 202.612 103.184C201.417 103.995 200.521 105.189 199.924 106.768C199.326 108.347 199.092 110.267 199.22 112.528C199.049 114.491 199.284 116.219 199.924 117.712C200.564 119.205 201.545 120.379 202.868 121.232C204.19 122.043 205.79 122.448 207.668 122.448C209.374 122.448 210.825 122.107 212.02 121.424C213.257 120.741 214.217 119.803 214.9 118.608L222.58 122.256C221.897 123.963 220.809 125.456 219.316 126.736C217.865 128.016 216.137 129.019 214.132 129.744C212.126 130.427 209.929 130.768 207.54 130.768ZM229.833 130V95.056H238.793V103.44L238.153 102.224C238.921 99.28 240.179 97.296 241.929 96.272C243.721 95.2053 245.833 94.672 248.265 94.672H250.313V102.992H247.305C244.958 102.992 243.059 103.717 241.609 105.168C240.158 106.576 239.433 108.581 239.433 111.184V130H229.833ZM268.216 130.768C264.376 130.768 261.027 129.872 258.168 128.08C255.352 126.245 253.432 123.792 252.408 120.72L259.448 117.392C260.344 119.269 261.56 120.741 263.096 121.808C264.632 122.875 266.339 123.408 268.216 123.408C269.581 123.408 270.627 123.131 271.352 122.576C272.077 122.021 272.44 121.253 272.44 120.272C272.44 119.76 272.312 119.333 272.056 118.992C271.8 118.608 271.416 118.267 270.904 117.968C270.392 117.669 269.752 117.413 268.984 117.2L263.032 115.536C260.173 114.725 257.976 113.424 256.44 111.632C254.904 109.797 254.136 107.643 254.136 105.168C254.136 102.992 254.691 101.093 255.8 99.472C256.909 97.8507 258.467 96.592 260.472 95.696C262.477 94.7573 264.781 94.288 267.384 94.288C270.797 94.288 273.784 95.0987 276.344 96.72C278.947 98.2987 280.781 100.539 281.848 103.44L274.744 106.768C274.232 105.317 273.293 104.165 271.928 103.312C270.605 102.416 269.091 101.968 267.384 101.968C266.147 101.968 265.165 102.224 264.44 102.736C263.757 103.248 263.416 103.952 263.416 104.848C263.416 105.317 263.544 105.744 263.8 106.128C264.056 106.512 264.461 106.853 265.016 107.152C265.613 107.451 266.339 107.728 267.192 107.984L272.76 109.648C275.661 110.501 277.88 111.803 279.416 113.552C280.952 115.259 281.72 117.371 281.72 119.888C281.72 122.064 281.144 123.963 279.992 125.584C278.883 127.205 277.325 128.485 275.32 129.424C273.315 130.32 270.947 130.768 268.216 130.768ZM316.302 130.768C312.846 130.768 309.688 129.979 306.83 128.4C304.014 126.821 301.752 124.667 300.046 121.936C298.382 119.163 297.549 116.027 297.549 112.528C297.549 108.987 298.382 105.851 300.046 103.12C301.752 100.389 304.014 98.2347 306.83 96.656C309.688 95.0773 312.846 94.288 316.302 94.288C319.758 94.288 322.894 95.0773 325.71 96.656C328.526 98.2347 330.766 100.389 332.43 103.12C334.136 105.851 334.99 108.987 334.99 112.528C334.99 116.027 334.136 119.163 332.43 121.936C330.766 124.667 328.526 126.821 325.71 128.4C322.894 129.979 319.758 130.768 316.302 130.768ZM316.302 122.128C318.051 122.128 319.566 121.723 320.846 120.912C322.168 120.101 323.192 118.971 323.918 117.52C324.686 116.069 325.07 114.405 325.07 112.528C325.07 110.651 324.686 109.008 323.918 107.6C323.192 106.149 322.168 105.019 320.846 104.208C319.566 103.355 318.051 102.928 316.302 102.928C314.552 102.928 313.016 103.355 311.694 104.208C310.371 105.019 309.326 106.149 308.558 107.6C307.832 109.008 307.47 110.651 307.47 112.528C307.47 114.405 307.832 116.069 308.558 117.52C309.326 118.971 310.371 120.101 311.694 120.912C313.016 121.723 314.552 122.128 316.302 122.128ZM344.244 130V103.376H338.356V95.056H344.244V94.544C344.244 91.7707 344.777 89.424 345.844 87.504C346.953 85.584 348.532 84.112 350.58 83.088C352.628 82.064 355.103 81.552 358.004 81.552C358.559 81.552 359.156 81.5947 359.796 81.68C360.436 81.7227 360.969 81.7867 361.396 81.872V90.064C360.969 89.9787 360.585 89.936 360.244 89.936C359.945 89.8933 359.625 89.872 359.284 89.872C357.492 89.872 356.127 90.2773 355.188 91.088C354.292 91.856 353.844 93.008 353.844 94.544V95.056H361.332V103.376H353.844V130H344.244ZM20.352 211.384C16.128 211.384 12.8427 210.253 10.496 207.992C8.192 205.688 7.04 202.488 7.04 198.392V184.376H1.152V176.056H1.472C3.264 176.056 4.62933 175.608 5.568 174.712C6.54933 173.816 7.04 172.472 7.04 170.68V168.12H16.64V176.056H24.832V184.376H16.64V197.752C16.64 198.947 16.8533 199.949 17.28 200.76C17.7067 201.528 18.368 202.104 19.264 202.488C20.16 202.872 21.2693 203.064 22.592 203.064C22.8907 203.064 23.232 203.043 23.616 203C24 202.957 24.4053 202.915 24.832 202.872V211C24.192 211.085 23.4667 211.171 22.656 211.256C21.8453 211.341 21.0773 211.384 20.352 211.384ZM30.4575 211V162.552H40.0575V182.968L38.9055 181.432C39.7162 179.341 41.0175 177.805 42.8095 176.824C44.6442 175.8 46.7775 175.288 49.2095 175.288C51.8548 175.288 54.1588 175.843 56.1215 176.952C58.1268 178.061 59.6842 179.619 60.7935 181.624C61.9028 183.587 62.4575 185.891 62.4575 188.536V211H52.8575V190.584C52.8575 189.219 52.5802 188.045 52.0255 187.064C51.5135 186.083 50.7668 185.315 49.7855 184.76C48.8468 184.205 47.7375 183.928 46.4575 183.928C45.2202 183.928 44.1108 184.205 43.1295 184.76C42.1482 185.315 41.3802 186.083 40.8255 187.064C40.3135 188.045 40.0575 189.219 40.0575 190.584V211H30.4575ZM85.602 211.768C81.89 211.768 78.6687 210.957 75.938 209.336C73.2073 207.672 71.0953 205.453 69.602 202.68C68.1087 199.907 67.362 196.835 67.362 193.464C67.362 189.965 68.13 186.851 69.666 184.12C71.2447 181.389 73.3567 179.235 76.002 177.656C78.6473 176.077 81.634 175.288 84.962 175.288C87.7353 175.288 90.1887 175.736 92.322 176.632C94.4553 177.485 96.2473 178.701 97.698 180.28C99.1913 181.859 100.322 183.693 101.09 185.784C101.858 187.832 102.242 190.072 102.242 192.504C102.242 193.187 102.199 193.869 102.114 194.552C102.071 195.192 101.965 195.747 101.794 196.216H75.618V189.176H96.354L91.81 192.504C92.2367 190.669 92.2153 189.048 91.746 187.64C91.2767 186.189 90.4447 185.059 89.25 184.248C88.098 183.395 86.6687 182.968 84.962 182.968C83.298 182.968 81.8687 183.373 80.674 184.184C79.4793 184.995 78.5833 186.189 77.986 187.768C77.3887 189.347 77.154 191.267 77.282 193.528C77.1113 195.491 77.346 197.219 77.986 198.712C78.626 200.205 79.6073 201.379 80.93 202.232C82.2527 203.043 83.8527 203.448 85.73 203.448C87.4367 203.448 88.8873 203.107 90.082 202.424C91.3193 201.741 92.2793 200.803 92.962 199.608L100.642 203.256C99.9593 204.963 98.8713 206.456 97.378 207.736C95.9273 209.016 94.1993 210.019 92.194 210.744C90.1887 211.427 87.9913 211.768 85.602 211.768ZM139.043 211.768C135.288 211.768 131.939 210.979 128.995 209.4C126.051 207.821 123.726 205.667 122.019 202.936C120.355 200.163 119.523 197.027 119.523 193.528V163.32H129.443V192.888C129.443 194.765 129.848 196.472 130.659 198.008C131.512 199.501 132.664 200.675 134.115 201.528C135.566 202.381 137.208 202.808 139.043 202.808C140.92 202.808 142.563 202.381 143.971 201.528C145.422 200.675 146.552 199.501 147.363 198.008C148.216 196.472 148.643 194.765 148.643 192.888V163.32H158.563V193.528C158.563 197.027 157.71 200.163 156.003 202.936C154.339 205.667 152.035 207.821 149.091 209.4C146.147 210.979 142.798 211.768 139.043 211.768ZM165.708 211V176.056H174.668V182.968L174.156 181.432C174.966 179.341 176.268 177.805 178.06 176.824C179.894 175.8 182.028 175.288 184.46 175.288C187.105 175.288 189.409 175.843 191.372 176.952C193.377 178.061 194.934 179.619 196.044 181.624C197.153 183.587 197.708 185.891 197.708 188.536V211H188.108V190.584C188.108 189.219 187.83 188.045 187.276 187.064C186.764 186.083 186.017 185.315 185.036 184.76C184.097 184.205 182.988 183.928 181.708 183.928C180.47 183.928 179.361 184.205 178.38 184.76C177.398 185.315 176.63 186.083 176.076 187.064C175.564 188.045 175.308 189.219 175.308 190.584V211H165.708ZM204.02 211V176.056H213.62V211H204.02ZM204.02 172.92V163.32H213.62V172.92H204.02ZM231.589 211L217.829 176.056H228.197L237.733 202.488H233.765L243.301 176.056H253.669L239.909 211H231.589ZM274.102 211.768C270.39 211.768 267.169 210.957 264.438 209.336C261.707 207.672 259.595 205.453 258.102 202.68C256.609 199.907 255.862 196.835 255.862 193.464C255.862 189.965 256.63 186.851 258.166 184.12C259.745 181.389 261.857 179.235 264.502 177.656C267.147 176.077 270.134 175.288 273.462 175.288C276.235 175.288 278.689 175.736 280.822 176.632C282.955 177.485 284.747 178.701 286.198 180.28C287.691 181.859 288.822 183.693 289.59 185.784C290.358 187.832 290.742 190.072 290.742 192.504C290.742 193.187 290.699 193.869 290.614 194.552C290.571 195.192 290.465 195.747 290.294 196.216H264.118V189.176H284.854L280.31 192.504C280.737 190.669 280.715 189.048 280.246 187.64C279.777 186.189 278.945 185.059 277.75 184.248C276.598 183.395 275.169 182.968 273.462 182.968C271.798 182.968 270.369 183.373 269.174 184.184C267.979 184.995 267.083 186.189 266.486 187.768C265.889 189.347 265.654 191.267 265.782 193.528C265.611 195.491 265.846 197.219 266.486 198.712C267.126 200.205 268.107 201.379 269.43 202.232C270.753 203.043 272.353 203.448 274.23 203.448C275.937 203.448 277.387 203.107 278.582 202.424C279.819 201.741 280.779 200.803 281.462 199.608L289.142 203.256C288.459 204.963 287.371 206.456 285.878 207.736C284.427 209.016 282.699 210.019 280.694 210.744C278.689 211.427 276.491 211.768 274.102 211.768ZM296.395 211V176.056H305.355V184.44L304.715 183.224C305.483 180.28 306.742 178.296 308.491 177.272C310.283 176.205 312.395 175.672 314.827 175.672H316.875V183.992H313.867C311.52 183.992 309.622 184.717 308.171 186.168C306.72 187.576 305.995 189.581 305.995 192.184V211H296.395ZM334.779 211.768C330.939 211.768 327.589 210.872 324.731 209.08C321.915 207.245 319.995 204.792 318.971 201.72L326.01 198.392C326.907 200.269 328.123 201.741 329.659 202.808C331.195 203.875 332.901 204.408 334.779 204.408C336.144 204.408 337.189 204.131 337.915 203.576C338.64 203.021 339.003 202.253 339.003 201.272C339.003 200.76 338.875 200.333 338.619 199.992C338.363 199.608 337.979 199.267 337.467 198.968C336.955 198.669 336.315 198.413 335.547 198.2L329.595 196.536C326.736 195.725 324.539 194.424 323.003 192.632C321.467 190.797 320.699 188.643 320.699 186.168C320.699 183.992 321.253 182.093 322.363 180.472C323.472 178.851 325.029 177.592 327.035 176.696C329.04 175.757 331.344 175.288 333.947 175.288C337.36 175.288 340.347 176.099 342.907 177.72C345.509 179.299 347.344 181.539 348.411 184.44L341.307 187.768C340.795 186.317 339.856 185.165 338.491 184.312C337.168 183.416 335.653 182.968 333.947 182.968C332.709 182.968 331.728 183.224 331.003 183.736C330.32 184.248 329.979 184.952 329.979 185.848C329.979 186.317 330.107 186.744 330.363 187.128C330.619 187.512 331.024 187.853 331.579 188.152C332.176 188.451 332.901 188.728 333.755 188.984L339.323 190.648C342.224 191.501 344.443 192.803 345.979 194.552C347.515 196.259 348.283 198.371 348.283 200.888C348.283 203.064 347.707 204.963 346.555 206.584C345.445 208.205 343.888 209.485 341.883 210.424C339.877 211.32 337.509 211.768 334.779 211.768ZM370.852 211.768C367.14 211.768 363.919 210.957 361.188 209.336C358.457 207.672 356.345 205.453 354.852 202.68C353.359 199.907 352.612 196.835 352.612 193.464C352.612 189.965 353.38 186.851 354.916 184.12C356.495 181.389 358.607 179.235 361.252 177.656C363.897 176.077 366.884 175.288 370.212 175.288C372.985 175.288 375.439 175.736 377.572 176.632C379.705 177.485 381.497 178.701 382.948 180.28C384.441 181.859 385.572 183.693 386.34 185.784C387.108 187.832 387.492 190.072 387.492 192.504C387.492 193.187 387.449 193.869 387.364 194.552C387.321 195.192 387.215 195.747 387.044 196.216H360.868V189.176H381.604L377.06 192.504C377.487 190.669 377.465 189.048 376.996 187.64C376.527 186.189 375.695 185.059 374.5 184.248C373.348 183.395 371.919 182.968 370.212 182.968C368.548 182.968 367.119 183.373 365.924 184.184C364.729 184.995 363.833 186.189 363.236 187.768C362.639 189.347 362.404 191.267 362.532 193.528C362.361 195.491 362.596 197.219 363.236 198.712C363.876 200.205 364.857 201.379 366.18 202.232C367.503 203.043 369.103 203.448 370.98 203.448C372.687 203.448 374.137 203.107 375.332 202.424C376.569 201.741 377.529 200.803 378.212 199.608L385.892 203.256C385.209 204.963 384.121 206.456 382.628 207.736C381.177 209.016 379.449 210.019 377.444 210.744C375.439 211.427 373.241 211.768 370.852 211.768Z" fill="white"/>
</svg>
